<?xml version="1.0" standalone="no"?>
<!DOCTYPE svg PUBLIC "-//W3C//DTD SVG 20010904//EN"
 "http://www.w3.org/TR/2001/REC-SVG-20010904/DTD/svg10.dtd">
<svg version="1.0" xmlns="http://www.w3.org/2000/svg"
 width="40.000000pt" height="69.000000pt" viewBox="0 0 40.000000 69.000000"
 preserveAspectRatio="xMidYMid meet">
<metadata>
Created by potrace 1.16, written by Peter Selinger 2001-2019
</metadata>
<g transform="translate(0.000000,69.000000) scale(0.100000,-0.100000)"
fill="#000000" stroke="none">
<path d="M305 672 c-11 -9 -26 -28 -32 -42 -7 -14 -21 -36 -32 -50 -11 -14
-22 -39 -26 -56 -5 -29 -3 -32 23 -37 16 -3 32 -13 36 -22 9 -25 -12 -153 -33
-201 -22 -50 -95 -132 -128 -145 -13 -5 -27 -19 -32 -32 -10 -25 -29 -37 -62
-37 -25 0 -25 -26 0 -40 29 -15 56 -12 105 10 99 47 200 160 250 277 21 49 26
79 26 141 0 49 -5 83 -12 91 -8 7 -13 40 -13 87 1 73 0 74 -25 74 -14 -1 -34
-8 -45 -18z"/>
</g>
</svg>
