<?xml version="1.0" standalone="no"?>
<!DOCTYPE svg PUBLIC "-//W3C//DTD SVG 20010904//EN"
 "http://www.w3.org/TR/2001/REC-SVG-20010904/DTD/svg10.dtd">
<svg version="1.0" xmlns="http://www.w3.org/2000/svg"
 width="42.000000pt" height="162.000000pt" viewBox="0 0 42.000000 162.000000"
 preserveAspectRatio="xMidYMid meet">
<metadata>
Created by potrace 1.16, written by Peter Selinger 2001-2019
</metadata>
<g transform="translate(0.000000,162.000000) scale(0.100000,-0.100000)"
fill="#000000" stroke="none">
<path d="M343 1612 c-19 -12 -59 -76 -67 -105 -3 -14 -21 -52 -40 -84 -18 -32
-37 -69 -41 -83 -4 -14 -18 -38 -31 -53 -13 -16 -24 -37 -24 -48 0 -25 -29
-97 -52 -131 -10 -14 -18 -39 -18 -55 0 -16 -6 -37 -14 -48 -33 -48 -49 -148
-53 -340 -4 -166 -2 -201 15 -275 26 -109 66 -224 98 -277 13 -23 24 -50 24
-60 1 -50 56 -68 99 -33 21 18 22 23 11 53 -23 62 -34 82 -69 126 -26 33 -35
55 -38 95 -3 28 -13 76 -24 106 -33 98 -24 502 13 544 4 6 8 28 8 51 0 28 8
52 25 75 14 19 25 42 25 51 0 10 4 21 10 24 6 3 10 16 10 28 0 12 18 49 40 82
22 33 40 65 40 71 0 6 25 38 56 70 31 33 60 67 65 76 13 25 11 58 -5 64 -7 3
-16 23 -20 45 -6 38 -18 47 -43 31z"/>
</g>
</svg>
