<?xml version="1.0" standalone="no"?>
<!DOCTYPE svg PUBLIC "-//W3C//DTD SVG 20010904//EN"
 "http://www.w3.org/TR/2001/REC-SVG-20010904/DTD/svg10.dtd">
<svg version="1.0" xmlns="http://www.w3.org/2000/svg"
 width="51.000000pt" height="163.000000pt" viewBox="0 0 51.000000 163.000000"
 preserveAspectRatio="xMidYMid meet">
<metadata>
Created by potrace 1.16, written by Peter Selinger 2001-2019
</metadata>
<g transform="translate(0.000000,163.000000) scale(0.100000,-0.100000)"
fill="#000000" stroke="none">
<path d="M338 1623 c-30 -8 -32 -62 -4 -143 49 -148 59 -255 26 -285 -28 -26
-26 -72 5 -101 29 -26 31 -50 11 -120 -8 -27 -19 -92 -26 -144 -11 -82 -32
-164 -60 -235 -5 -11 -15 -42 -24 -70 -14 -47 -54 -125 -111 -220 -13 -22 -24
-49 -25 -60 0 -12 -13 -28 -29 -38 -19 -11 -32 -29 -37 -50 -3 -17 -20 -48
-35 -67 -44 -53 -36 -90 20 -90 17 0 51 33 51 49 0 5 6 16 13 23 6 7 20 29 31
48 10 19 25 40 32 46 8 6 25 36 39 67 14 30 32 61 40 67 8 7 15 26 15 42 0 19
11 43 30 64 16 19 33 47 36 62 3 15 15 45 25 68 10 22 19 48 19 57 0 10 4 25
10 35 18 31 90 262 90 288 0 14 7 47 16 73 11 35 14 74 11 147 -5 117 -26 285
-37 299 -4 6 -10 27 -14 48 -4 21 -14 41 -22 44 -7 3 -14 14 -14 25 0 10 -7
32 -15 48 -15 29 -28 33 -67 23z"/>
</g>
</svg>
