<?xml version="1.0" standalone="no"?>
<!DOCTYPE svg PUBLIC "-//W3C//DTD SVG 20010904//EN"
 "http://www.w3.org/TR/2001/REC-SVG-20010904/DTD/svg10.dtd">
<svg version="1.0" xmlns="http://www.w3.org/2000/svg"
 width="86.000000pt" height="89.000000pt" viewBox="0 0 86.000000 89.000000"
 preserveAspectRatio="xMidYMid meet">
<metadata>
Created by potrace 1.16, written by Peter Selinger 2001-2019
</metadata>
<g transform="translate(0.000000,89.000000) scale(0.100000,-0.100000)"
fill="#000000" stroke="none">
<path d="M450 881 c0 -5 -10 -11 -22 -15 -19 -4 -27 -20 -46 -98 -28 -112 -36
-141 -55 -193 -14 -38 -18 -40 -54 -39 -37 2 -172 11 -222 17 -32 3 -62 -44
-45 -70 9 -15 31 -19 135 -23 120 -5 124 -6 127 -28 2 -13 -4 -34 -12 -47 -9
-13 -16 -33 -16 -45 0 -11 -6 -20 -14 -20 -8 0 -16 -16 -20 -39 -3 -21 -13
-41 -21 -45 -8 -3 -15 -14 -15 -24 0 -10 -4 -22 -9 -28 -5 -5 -12 -48 -16 -96
l-7 -88 33 0 c47 0 55 8 64 60 7 46 38 90 62 90 9 0 13 14 13 44 0 26 6 48 15
56 8 7 15 19 15 26 0 8 4 14 9 14 5 0 11 23 15 50 4 28 11 61 16 74 l9 24 215
0 c118 0 224 3 236 7 14 4 20 15 20 34 l0 28 -152 6 c-83 4 -180 7 -216 7
l-64 0 7 33 c4 17 11 50 15 72 15 72 27 109 48 154 25 50 28 81 10 99 -14 14
-58 16 -58 3z"/>
</g>
</svg>
