<?xml version="1.0" standalone="no"?>
<!DOCTYPE svg PUBLIC "-//W3C//DTD SVG 20010904//EN"
 "http://www.w3.org/TR/2001/REC-SVG-20010904/DTD/svg10.dtd">
<svg version="1.0" xmlns="http://www.w3.org/2000/svg"
 width="121.000000pt" height="149.000000pt" viewBox="0 0 121.000000 149.000000"
 preserveAspectRatio="xMidYMid meet">
<metadata>
Created by potrace 1.16, written by Peter Selinger 2001-2019
</metadata>
<g transform="translate(0.000000,149.000000) scale(0.100000,-0.100000)"
fill="#000000" stroke="none">
<path d="M815 1483 c-5 -5 -35 -15 -65 -23 -64 -15 -123 -43 -163 -76 -16 -13
-35 -24 -42 -24 -8 0 -33 -17 -56 -37 -24 -21 -65 -58 -93 -83 -28 -25 -60
-56 -71 -70 -11 -14 -34 -38 -52 -54 -18 -16 -33 -34 -33 -40 0 -11 -33 -62
-92 -142 -21 -28 -38 -61 -38 -72 0 -12 -4 -22 -10 -22 -5 0 -10 -9 -10 -19 0
-11 -4 -23 -10 -26 -5 -3 -10 -19 -10 -34 0 -15 -7 -36 -15 -47 -8 -10 -15
-34 -15 -52 0 -18 -4 -41 -10 -51 -18 -35 -33 -194 -26 -283 7 -73 11 -88 27
-93 14 -5 19 -16 19 -40 0 -19 6 -39 13 -44 45 -37 67 -60 67 -70 0 -6 11 -17
25 -23 14 -6 25 -15 25 -19 0 -4 13 -10 30 -14 16 -4 32 -11 35 -16 14 -21
189 -7 260 22 11 4 48 18 83 31 34 12 62 26 62 30 0 5 5 8 11 8 14 0 132 80
142 97 4 7 13 13 20 13 7 0 25 16 40 35 15 19 34 35 42 35 8 0 15 4 15 10 0 5
20 29 45 52 25 23 45 47 45 52 0 5 11 23 24 40 13 17 26 41 30 54 4 12 14 22
22 22 8 0 14 10 14 24 0 14 4 27 9 30 4 3 11 26 13 51 3 25 13 54 23 65 21 23
38 89 36 143 0 28 3 37 16 37 13 0 15 8 10 43 -3 23 -9 84 -13 135 -5 67 -11
95 -21 99 -10 4 -14 19 -12 52 4 83 0 111 -16 111 -9 0 -18 12 -21 29 -4 17
-22 47 -40 68 -19 21 -34 40 -34 43 0 9 -54 28 -100 34 -110 16 -126 17 -135
9z m102 -107 c4 -8 25 -21 45 -29 37 -15 43 -27 50 -87 2 -16 11 -26 28 -30
23 -6 25 -10 22 -53 -3 -42 -1 -47 17 -47 15 0 21 -6 21 -24 0 -13 7 -26 15
-30 30 -11 16 -293 -17 -330 -4 -6 -8 -18 -8 -28 0 -10 -7 -18 -15 -18 -10 0
-15 -11 -15 -35 0 -22 -7 -41 -20 -53 -12 -11 -24 -36 -27 -58 -7 -45 -51
-112 -107 -164 -153 -143 -268 -225 -376 -268 -48 -19 -72 -22 -167 -20 l-112
2 -28 34 c-15 19 -43 50 -60 69 -18 18 -33 41 -33 50 0 9 -6 24 -14 32 -11 12
-16 51 -18 146 -3 118 -1 134 20 176 12 25 22 53 22 62 0 9 4 17 9 17 5 0 12
27 16 60 4 33 10 60 14 60 10 0 61 111 61 132 0 9 7 18 15 22 8 3 15 12 15 20
0 7 9 16 20 19 13 3 20 14 20 29 0 15 16 37 47 63 25 22 61 54 78 70 101 95
137 125 150 125 8 0 15 5 15 10 0 6 7 10 15 10 17 0 52 18 73 38 7 6 22 12 33
12 11 0 27 7 35 15 21 20 149 21 161 1z"/>
</g>
</svg>
