<?xml version="1.0" standalone="no"?>
<!DOCTYPE svg PUBLIC "-//W3C//DTD SVG 20010904//EN"
 "http://www.w3.org/TR/2001/REC-SVG-20010904/DTD/svg10.dtd">
<svg version="1.0" xmlns="http://www.w3.org/2000/svg"
 width="111.000000pt" height="176.000000pt" viewBox="0 0 111.000000 176.000000"
 preserveAspectRatio="xMidYMid meet">
<metadata>
Created by potrace 1.16, written by Peter Selinger 2001-2019
</metadata>
<g transform="translate(0.000000,176.000000) scale(0.100000,-0.100000)"
fill="#000000" stroke="none">
<path d="M1020 1753 c-8 -4 -21 -12 -28 -20 -7 -7 -21 -13 -30 -13 -10 0 -29
-12 -43 -27 -31 -33 -81 -73 -92 -73 -11 0 -160 -128 -170 -146 -4 -8 -13 -14
-19 -14 -6 0 -28 -16 -49 -35 -22 -19 -44 -35 -51 -35 -6 0 -18 -7 -27 -15
-41 -40 -170 -136 -209 -155 -39 -20 -43 -25 -40 -53 3 -30 6 -32 44 -35 35
-3 47 2 75 27 18 17 37 31 41 31 4 0 19 11 34 25 15 14 32 25 39 25 7 0 15 8
17 18 3 9 22 23 44 30 21 8 58 22 81 33 24 10 47 19 53 19 18 0 11 -59 -10
-80 -11 -11 -20 -33 -20 -50 0 -16 -4 -30 -9 -30 -5 0 -17 -21 -26 -47 -9 -27
-21 -56 -26 -65 -5 -10 -9 -29 -9 -43 0 -14 -4 -25 -10 -25 -5 0 -10 -11 -10
-25 0 -14 -9 -44 -19 -68 -11 -23 -25 -92 -32 -155 -7 -62 -16 -115 -21 -118
-4 -3 -8 -23 -8 -45 0 -26 -5 -42 -15 -45 -9 -4 -15 -19 -15 -41 0 -31 -6 -47
-43 -118 -6 -11 -14 -45 -18 -75 -10 -80 -25 -129 -46 -152 -16 -17 -25 -19
-77 -13 -32 3 -99 3 -148 -1 -72 -5 -94 -11 -109 -27 -52 -57 -7 -80 168 -85
97 -3 135 -8 144 -18 16 -19 35 -18 68 7 29 21 119 33 326 44 44 3 89 9 100
13 27 12 111 32 135 32 11 0 20 6 20 14 0 8 7 16 15 20 8 3 15 11 15 18 0 23
-36 37 -113 44 -60 5 -81 3 -108 -10 -43 -22 -319 -36 -319 -18 0 7 -7 12 -15
12 -16 0 -21 45 -6 54 5 4 12 24 16 47 4 22 13 43 21 46 8 3 14 13 14 23 0 11
4 22 10 25 6 3 10 19 10 35 0 16 4 32 10 35 5 3 10 24 10 46 0 21 4 39 9 39 6
0 13 20 17 45 3 25 11 45 18 45 7 0 12 36 13 112 1 71 5 114 12 116 6 2 11 16
11 32 0 16 6 35 14 42 7 8 17 46 21 85 4 46 13 78 25 90 24 27 40 58 40 81 0
11 6 22 14 25 7 3 16 24 20 47 4 24 18 66 31 95 14 28 25 59 25 67 0 9 12 24
28 34 38 25 52 40 52 57 0 8 11 22 24 32 13 10 27 31 30 47 3 16 12 28 21 28
9 0 18 7 21 15 4 8 14 15 24 15 10 0 31 16 47 35 17 19 35 35 42 35 6 0 11 9
11 20 0 17 -6 20 -37 19 -21 0 -45 -3 -53 -6z"/>
</g>
</svg>
