<?xml version="1.0" standalone="no"?>
<!DOCTYPE svg PUBLIC "-//W3C//DTD SVG 20010904//EN"
 "http://www.w3.org/TR/2001/REC-SVG-20010904/DTD/svg10.dtd">
<svg version="1.0" xmlns="http://www.w3.org/2000/svg"
 width="131.000000pt" height="173.000000pt" viewBox="0 0 131.000000 173.000000"
 preserveAspectRatio="xMidYMid meet">
<metadata>
Created by potrace 1.16, written by Peter Selinger 2001-2019
</metadata>
<g transform="translate(0.000000,173.000000) scale(0.100000,-0.100000)"
fill="#000000" stroke="none">
<path d="M840 1714 c-86 -16 -179 -53 -222 -89 -16 -14 -34 -25 -39 -25 -11 0
-28 -13 -75 -56 -19 -18 -40 -34 -48 -37 -8 -3 -29 -26 -48 -51 -18 -24 -43
-50 -55 -57 -20 -11 -43 -56 -43 -83 0 -6 7 -19 14 -29 11 -14 22 -17 50 -12
32 6 36 11 36 36 0 32 38 99 57 99 6 0 15 9 18 21 4 11 20 25 36 31 16 5 29
14 29 19 0 14 39 49 55 49 8 0 31 16 51 35 19 19 45 35 57 35 24 0 83 19 106
34 14 9 77 17 139 17 40 0 103 -47 126 -95 19 -41 34 -285 19 -319 -5 -12 -22
-58 -37 -102 -42 -122 -47 -132 -124 -250 -72 -111 -96 -143 -143 -193 -14
-15 -28 -35 -32 -44 -3 -10 -22 -28 -41 -40 -20 -13 -36 -27 -36 -31 0 -16
-53 -77 -66 -77 -7 0 -26 -17 -41 -37 -15 -21 -55 -64 -88 -96 -56 -54 -63
-58 -95 -53 -105 18 -148 18 -196 0 -27 -9 -58 -24 -69 -31 -11 -7 -27 -13
-36 -13 -10 0 -31 -12 -48 -26 -27 -22 -31 -32 -31 -74 0 -27 -5 -52 -10 -55
-18 -11 -10 -35 16 -45 31 -12 160 6 189 26 11 8 30 14 43 14 13 0 38 11 57
25 59 46 127 46 179 0 16 -14 33 -25 38 -25 5 0 28 -8 51 -18 23 -10 60 -26
82 -34 22 -9 64 -26 94 -38 74 -30 180 -26 209 8 11 12 29 22 40 22 20 0 105
41 127 61 5 5 16 9 25 9 8 0 29 14 47 30 18 17 38 30 45 30 21 0 58 29 58 46
0 19 -66 19 -100 0 -14 -8 -40 -22 -58 -31 -17 -10 -32 -21 -32 -25 0 -11 -78
-47 -143 -66 -90 -26 -202 -7 -297 52 -20 12 -51 25 -70 28 -68 14 -100 35
-100 64 1 33 21 62 44 62 9 0 16 5 16 10 0 6 6 10 14 10 8 0 19 14 25 30 5 17
17 33 26 36 8 3 15 12 15 19 0 16 79 99 103 108 9 3 17 16 17 27 0 13 7 20 18
20 11 0 25 14 35 34 9 19 25 37 36 41 12 3 21 13 21 21 0 8 9 22 20 31 11 10
20 22 20 28 0 6 18 30 40 53 22 22 40 48 40 57 0 8 7 15 15 15 9 0 15 9 15 25
0 14 9 33 20 42 11 10 27 40 36 68 9 27 20 54 25 59 5 6 9 20 9 33 0 13 4 23
8 23 4 0 16 26 27 58 14 44 19 98 23 241 4 174 3 184 -17 212 -11 15 -21 33
-21 39 0 16 -38 50 -57 50 -10 0 -36 7 -58 15 -48 17 -85 17 -185 -1z m-540
-1477 c0 -31 -89 -77 -149 -77 -18 0 -13 46 7 63 26 24 142 35 142 14z"/>
</g>
</svg>
