<?xml version="1.0" standalone="no"?>
<!DOCTYPE svg PUBLIC "-//W3C//DTD SVG 20010904//EN"
 "http://www.w3.org/TR/2001/REC-SVG-20010904/DTD/svg10.dtd">
<svg version="1.0" xmlns="http://www.w3.org/2000/svg"
 width="106.000000pt" height="190.000000pt" viewBox="0 0 106.000000 190.000000"
 preserveAspectRatio="xMidYMid meet">
<metadata>
Created by potrace 1.16, written by Peter Selinger 2001-2019
</metadata>
<g transform="translate(0.000000,190.000000) scale(0.100000,-0.100000)"
fill="#000000" stroke="none">
<path d="M825 1884 c-77 -20 -157 -51 -164 -62 -3 -6 -20 -14 -36 -17 -17 -4
-57 -33 -90 -65 -33 -32 -74 -65 -91 -73 -17 -9 -45 -32 -63 -52 -53 -61 -35
-115 40 -115 36 0 39 2 39 29 0 19 11 38 33 59 17 17 57 56 87 86 54 52 113
86 151 86 9 0 25 7 34 16 11 12 36 17 87 18 l71 1 14 -40 c24 -66 28 -164 9
-209 -9 -21 -16 -48 -16 -60 0 -20 -35 -79 -82 -140 -13 -16 -29 -40 -37 -55
-8 -14 -17 -28 -21 -31 -4 -3 -13 -15 -19 -28 -7 -13 -19 -31 -26 -40 -8 -9
-30 -37 -49 -60 -20 -24 -36 -48 -36 -52 0 -5 -21 -28 -47 -52 -25 -23 -56
-53 -68 -65 -12 -12 -44 -33 -72 -46 -28 -13 -72 -42 -98 -65 -26 -23 -55 -42
-64 -42 -25 0 -141 -113 -141 -136 0 -11 5 -25 12 -32 14 -14 68 -16 68 -3 0
5 25 21 55 36 30 14 55 31 55 36 0 5 5 9 11 9 6 0 26 12 43 28 99 84 136 111
210 150 71 37 88 42 135 40 79 -4 89 -22 97 -168 7 -123 -7 -214 -46 -290 -9
-19 -38 -78 -64 -130 -61 -125 -98 -190 -107 -190 -5 0 -23 -16 -42 -35 -43
-44 -71 -45 -139 -3 -47 29 -61 33 -128 34 -58 0 -86 6 -125 25 -69 33 -125
78 -125 99 0 10 16 35 35 56 19 20 35 46 35 57 0 16 -5 19 -30 13 -31 -6 -49
-17 -78 -50 -9 -10 -22 -24 -28 -30 -20 -19 -5 -117 22 -144 13 -12 28 -22 34
-22 5 0 10 -4 10 -9 0 -5 24 -17 53 -27 28 -9 57 -20 63 -25 6 -5 42 -16 80
-25 38 -8 73 -19 79 -24 18 -15 133 -50 164 -50 37 0 142 53 161 82 8 12 33
42 55 67 22 26 47 60 54 76 7 17 17 37 22 45 4 8 27 53 49 100 23 47 45 93 50
102 48 88 52 412 7 506 -16 33 -58 52 -117 52 -47 0 -50 2 -50 25 0 14 7 28
15 31 8 4 15 12 15 20 0 8 9 19 20 26 11 7 20 17 20 22 0 5 20 36 45 67 25 32
45 63 45 70 0 6 10 22 23 34 26 25 67 98 67 118 0 8 12 27 27 43 24 26 27 37
31 131 4 97 3 105 -25 166 -47 99 -107 128 -208 101z"/>
</g>
</svg>
