<?xml version="1.0" standalone="no"?>
<!DOCTYPE svg PUBLIC "-//W3C//DTD SVG 20010904//EN"
 "http://www.w3.org/TR/2001/REC-SVG-20010904/DTD/svg10.dtd">
<svg version="1.0" xmlns="http://www.w3.org/2000/svg"
 width="111.000000pt" height="152.000000pt" viewBox="0 0 111.000000 152.000000"
 preserveAspectRatio="xMidYMid meet">
<metadata>
Created by potrace 1.16, written by Peter Selinger 2001-2019
</metadata>
<g transform="translate(0.000000,152.000000) scale(0.100000,-0.100000)"
fill="#000000" stroke="none">
<path d="M370 1498 c-19 -30 -43 -95 -81 -218 -11 -36 -105 -230 -138 -285
-28 -47 -111 -248 -111 -269 0 -10 -10 -38 -22 -62 -18 -36 -19 -48 -10 -69
11 -24 45 -34 56 -16 3 4 27 14 53 21 27 7 52 17 57 21 6 5 19 9 30 9 22 0 82
18 111 33 20 10 49 18 150 38 28 6 64 16 80 24 17 7 44 16 60 20 17 4 39 10
50 15 29 12 110 30 136 30 18 0 20 -4 14 -27 -3 -16 -17 -53 -30 -83 -34 -81
-124 -373 -141 -460 -3 -14 -9 -34 -14 -45 -33 -82 -40 -104 -46 -137 -6 -37
-5 -38 24 -38 22 0 33 7 44 28 7 15 30 52 49 82 36 55 79 166 79 204 0 21 15
73 37 123 7 17 13 46 13 65 0 18 12 60 26 93 15 33 39 95 55 138 29 77 56 138
68 147 3 3 25 43 48 90 30 60 46 107 54 160 13 89 31 277 33 340 1 44 0 45
-32 48 -39 4 -57 -12 -67 -59 -4 -19 -12 -37 -17 -40 -5 -3 -19 -55 -30 -115
-24 -131 -83 -351 -102 -380 -16 -23 -65 -42 -176 -69 -41 -10 -93 -26 -115
-36 -22 -10 -58 -22 -80 -28 -22 -5 -71 -17 -109 -27 -38 -9 -88 -27 -112 -40
-24 -13 -59 -26 -79 -30 -33 -6 -35 -5 -35 20 0 31 37 132 60 166 10 14 24 45
31 70 7 25 23 58 36 73 13 16 23 36 23 45 0 9 7 26 15 36 8 11 22 44 31 75 9
31 23 64 31 73 9 10 19 39 24 65 6 31 20 58 39 78 32 33 41 90 18 113 -21 21
-72 15 -88 -10z"/>
</g>
</svg>
