<?xml version="1.0" standalone="no"?>
<!DOCTYPE svg PUBLIC "-//W3C//DTD SVG 20010904//EN"
 "http://www.w3.org/TR/2001/REC-SVG-20010904/DTD/svg10.dtd">
<svg version="1.0" xmlns="http://www.w3.org/2000/svg"
 width="151.000000pt" height="173.000000pt" viewBox="0 0 151.000000 173.000000"
 preserveAspectRatio="xMidYMid meet">
<metadata>
Created by potrace 1.16, written by Peter Selinger 2001-2019
</metadata>
<g transform="translate(0.000000,173.000000) scale(0.100000,-0.100000)"
fill="#000000" stroke="none">
<path d="M1330 1719 c-58 -3 -145 -11 -195 -18 -49 -6 -126 -15 -170 -21 -155
-19 -252 -23 -259 -11 -10 16 -68 14 -104 -4 -37 -19 -48 -57 -33 -112 13 -45
13 -179 1 -243 -11 -60 -37 -161 -60 -236 -10 -34 -22 -83 -25 -110 -7 -47 -5
-50 20 -64 25 -14 32 -12 98 22 40 21 83 39 97 42 14 2 52 11 85 20 33 8 76
15 96 16 20 0 52 6 70 14 19 8 77 15 129 16 156 5 140 16 140 -104 0 -65 -6
-124 -16 -157 -43 -145 -87 -273 -106 -307 -12 -20 -33 -57 -46 -82 -14 -25
-33 -54 -42 -65 -10 -11 -25 -36 -34 -56 -10 -20 -43 -62 -75 -93 -72 -68
-119 -81 -175 -47 -26 16 -54 23 -105 25 -39 1 -74 5 -77 9 -4 4 -16 7 -27 7
-26 0 -95 40 -172 100 -33 26 -76 56 -95 68 -61 36 -100 108 -70 127 19 12 10
35 -14 35 -30 0 -86 -61 -86 -94 0 -37 150 -181 250 -242 80 -48 180 -94 203
-94 6 0 18 -7 27 -15 9 -8 49 -19 89 -25 41 -6 84 -13 97 -16 16 -4 24 -2 24
6 0 9 11 11 36 7 42 -7 75 4 112 38 15 14 30 25 33 25 15 0 209 270 209 290 0
6 13 30 29 53 15 23 42 89 60 147 17 58 39 128 49 155 13 39 17 83 17 203 l0
154 -29 25 c-29 24 -33 25 -125 19 -145 -9 -233 -21 -374 -51 -92 -20 -131
-25 -139 -17 -8 8 -4 36 12 99 16 62 24 128 27 225 4 116 8 139 23 153 23 21
204 58 246 50 17 -3 70 4 118 15 48 11 106 20 129 20 23 0 58 5 77 10 19 6 75
11 123 12 97 1 114 12 101 63 -5 21 -12 25 -38 23 -17 -1 -78 -5 -136 -9z"/>
<path d="M3 375 c-3 -9 -3 -18 0 -22 10 -10 37 6 37 22 0 20 -29 20 -37 0z"/>
</g>
</svg>
