<?xml version="1.0" standalone="no"?>
<!DOCTYPE svg PUBLIC "-//W3C//DTD SVG 20010904//EN"
 "http://www.w3.org/TR/2001/REC-SVG-20010904/DTD/svg10.dtd">
<svg version="1.0" xmlns="http://www.w3.org/2000/svg"
 width="110.000000pt" height="138.000000pt" viewBox="0 0 110.000000 138.000000"
 preserveAspectRatio="xMidYMid meet">
<metadata>
Created by potrace 1.16, written by Peter Selinger 2001-2019
</metadata>
<g transform="translate(0.000000,138.000000) scale(0.100000,-0.100000)"
fill="#000000" stroke="none">
<path d="M778 1336 c-53 -28 -106 -69 -165 -127 -113 -111 -253 -270 -278
-317 -10 -20 -50 -66 -88 -102 -63 -61 -69 -70 -76 -120 -6 -51 -39 -134 -66
-170 -23 -30 -40 -137 -40 -245 0 -92 3 -115 19 -140 25 -38 52 -65 66 -65 5
0 10 -4 10 -10 0 -19 73 -40 142 -40 64 0 206 26 218 39 5 6 38 20 115 48 22
8 49 23 61 34 11 10 26 19 32 19 14 0 50 19 70 37 7 7 18 13 23 13 16 0 141
100 181 144 40 44 69 97 88 159 11 34 9 49 -10 108 -11 38 -25 71 -31 74 -5 4
-9 15 -9 26 0 12 -10 23 -25 29 -21 8 -25 16 -25 50 0 29 -4 40 -15 40 -8 0
-15 -7 -15 -15 0 -19 -46 -20 -57 -1 -30 50 -228 76 -400 53 -55 -8 -63 -7
-63 7 0 18 28 53 84 105 64 60 66 62 66 81 0 11 40 51 98 100 53 44 107 90
119 101 15 14 38 21 70 22 l48 2 -3 -47 c-3 -41 0 -48 15 -48 39 0 63 29 63
74 0 134 -74 162 -222 82z m-79 -572 c41 -5 61 -11 61 -20 0 -8 9 -14 20 -14
12 0 25 -10 32 -25 10 -21 16 -25 39 -20 22 5 29 2 34 -14 3 -12 11 -21 16
-21 5 0 23 -19 40 -42 29 -40 31 -47 26 -104 -6 -61 -23 -114 -38 -114 -4 0
-9 -6 -11 -14 -5 -23 -104 -100 -180 -140 -40 -21 -96 -54 -124 -72 -29 -19
-78 -41 -110 -51 -73 -21 -192 -29 -207 -14 -6 6 -19 11 -29 11 -10 0 -26 9
-36 21 -9 11 -26 24 -36 28 -12 5 -24 26 -32 59 -11 43 -11 59 2 104 8 29 19
75 24 101 5 27 21 69 36 95 15 26 47 84 71 128 49 94 60 100 178 113 108 11
151 12 224 5z"/>
<path d="M2 68 c4 -30 43 -33 43 -3 0 13 -8 21 -23 23 -20 3 -23 0 -20 -20z"/>
</g>
</svg>
