<?xml version="1.0" standalone="no"?>
<!DOCTYPE svg PUBLIC "-//W3C//DTD SVG 20010904//EN"
 "http://www.w3.org/TR/2001/REC-SVG-20010904/DTD/svg10.dtd">
<svg version="1.0" xmlns="http://www.w3.org/2000/svg"
 width="162.000000pt" height="156.000000pt" viewBox="0 0 162.000000 156.000000"
 preserveAspectRatio="xMidYMid meet">
<metadata>
Created by potrace 1.16, written by Peter Selinger 2001-2019
</metadata>
<g transform="translate(0.000000,156.000000) scale(0.100000,-0.100000)"
fill="#000000" stroke="none">
<path d="M1004 1544 c-12 -8 -55 -18 -95 -21 -41 -3 -76 -9 -79 -13 -13 -17
-436 -62 -710 -76 -52 -2 -101 -6 -107 -9 -15 -5 -18 -55 -4 -55 5 0 11 -8 13
-17 3 -16 14 -18 103 -15 55 2 122 8 149 13 27 5 76 9 110 9 33 0 90 5 126 10
36 5 115 14 177 20 62 5 140 17 175 26 35 9 78 18 96 21 30 5 32 4 32 -26 0
-17 -4 -31 -9 -31 -5 0 -13 -15 -16 -32 -4 -18 -14 -42 -21 -53 -8 -11 -14
-27 -14 -37 0 -10 -4 -18 -9 -18 -5 0 -12 -17 -16 -37 -4 -21 -10 -42 -15 -48
-4 -5 -13 -27 -19 -47 -7 -21 -23 -58 -37 -83 -13 -26 -24 -53 -24 -62 0 -9
-15 -35 -32 -59 -30 -39 -38 -43 -88 -49 -55 -6 -281 -39 -353 -51 -21 -4 -40
-11 -43 -15 -9 -15 -64 -10 -96 8 -29 18 -29 18 -49 -7 -11 -15 -18 -37 -17
-55 3 -27 6 -30 33 -28 17 1 91 4 166 7 75 3 148 10 162 15 30 12 227 34 234
27 8 -8 -8 -66 -18 -66 -5 0 -9 -11 -9 -25 0 -14 -4 -25 -10 -25 -5 0 -18 -20
-29 -45 -11 -25 -29 -58 -41 -72 -11 -14 -20 -32 -20 -40 0 -8 -9 -26 -20 -40
-11 -14 -20 -34 -20 -44 0 -11 -4 -19 -10 -19 -5 0 -10 -7 -10 -16 0 -9 -11
-29 -25 -46 -14 -16 -25 -40 -25 -53 0 -13 -16 -44 -35 -69 -36 -48 -56 -118
-36 -130 6 -4 11 -21 11 -37 0 -40 28 -36 50 6 8 17 21 34 29 39 7 4 24 33 37
63 14 31 36 70 49 88 14 17 25 39 25 48 0 9 8 24 19 34 10 10 21 35 25 55 4
20 10 38 15 40 7 3 69 127 108 218 8 19 19 43 24 52 5 10 9 22 9 28 0 6 15 31
33 55 29 40 37 44 87 50 30 4 98 16 150 27 131 27 279 49 381 54 77 5 89 8
118 34 42 39 41 67 -1 75 -35 6 -162 -6 -263 -25 -175 -32 -287 -50 -347 -56
-75 -7 -82 -2 -49 44 10 15 24 45 31 67 7 22 22 60 33 85 39 93 63 169 72 233
4 26 11 47 16 47 5 0 9 10 9 22 0 12 7 30 17 40 9 10 17 36 17 61 l1 42 -50 2
c-32 2 -58 -3 -71 -13z"/>
</g>
</svg>
