<?xml version="1.0" standalone="no"?>
<!DOCTYPE svg PUBLIC "-//W3C//DTD SVG 20010904//EN"
 "http://www.w3.org/TR/2001/REC-SVG-20010904/DTD/svg10.dtd">
<svg version="1.0" xmlns="http://www.w3.org/2000/svg"
 width="138.000000pt" height="164.000000pt" viewBox="0 0 138.000000 164.000000"
 preserveAspectRatio="xMidYMid meet">
<metadata>
Created by potrace 1.16, written by Peter Selinger 2001-2019
</metadata>
<g transform="translate(0.000000,164.000000) scale(0.100000,-0.100000)"
fill="#000000" stroke="none">
<path d="M915 1630 c-150 -17 -184 -23 -240 -43 -291 -99 -383 -229 -322 -454
6 -24 16 -43 22 -43 5 0 16 -15 24 -32 22 -50 44 -77 64 -78 9 0 17 -7 17 -15
0 -8 9 -15 20 -15 11 0 20 -7 20 -15 0 -8 5 -15 10 -15 6 0 10 -7 10 -15 0 -9
12 -18 30 -22 17 -3 33 -10 36 -14 3 -5 14 -9 25 -9 13 0 19 -7 19 -22 0 -25
-48 -59 -130 -93 -25 -10 -64 -31 -88 -47 -24 -15 -48 -28 -55 -28 -7 0 -25
-12 -42 -26 -16 -15 -41 -34 -55 -42 -14 -9 -29 -22 -33 -29 -4 -7 -13 -13
-20 -13 -15 0 -157 -150 -157 -166 0 -6 -11 -22 -25 -35 -13 -13 -25 -34 -25
-46 0 -12 -4 -25 -10 -28 -25 -15 2 -105 32 -105 15 0 37 -31 38 -51 0 -19 20
-29 55 -29 13 0 28 -6 32 -12 10 -17 49 -38 68 -38 8 0 32 -9 54 -21 35 -18
60 -21 178 -22 143 -2 216 8 268 37 17 9 35 16 42 16 7 0 39 23 72 50 33 28
65 50 71 50 5 0 10 5 10 10 0 13 57 70 70 70 5 0 19 19 31 41 11 23 29 51 39
62 11 11 22 34 26 51 3 16 11 38 17 46 13 22 0 125 -19 141 -8 6 -14 17 -14
24 0 16 -92 100 -128 117 -14 7 -35 30 -46 52 l-21 38 35 29 c53 45 58 49 68
49 5 0 29 18 53 41 24 22 52 45 62 50 9 5 17 14 17 19 0 5 20 43 45 83 25 41
45 82 45 91 0 9 13 28 29 42 17 15 31 38 33 52 2 17 15 32 42 47 21 12 44 32
52 46 14 26 19 125 6 131 -4 2 -24 26 -44 53 -36 49 -39 51 -126 73 -90 22
-169 26 -287 12z m175 -91 c39 -8 50 -15 50 -30 0 -13 -7 -19 -23 -19 -33 0
-87 -28 -87 -46 0 -14 6 -16 95 -31 l50 -8 3 -42 c3 -35 -2 -47 -21 -65 -24
-23 -57 -109 -57 -147 0 -12 -6 -21 -13 -21 -7 0 -20 -12 -30 -27 -9 -16 -30
-43 -47 -62 -16 -18 -30 -38 -30 -43 0 -5 -20 -17 -45 -28 -25 -11 -45 -23
-45 -29 0 -27 -130 -55 -145 -31 -3 6 -15 10 -26 10 -10 0 -19 7 -19 15 0 9
-8 19 -17 23 -39 17 -83 48 -83 58 0 7 -7 14 -15 18 -8 3 -15 12 -15 21 0 9
-9 15 -24 15 -18 0 -26 7 -31 27 -3 15 -22 41 -41 59 -34 32 -44 67 -23 79 6
4 8 22 4 44 -5 28 -2 41 9 51 9 7 16 23 16 36 0 13 5 24 11 24 7 0 17 6 23 14
13 18 104 66 122 66 8 0 14 4 14 10 0 5 17 12 38 15 20 3 51 12 67 20 20 10
71 16 152 17 68 2 123 6 123 11 0 9 -1 9 60 -4z m-282 -823 c15 -8 34 -30 42
-50 9 -23 20 -36 32 -36 10 0 18 -4 18 -10 0 -12 37 -50 49 -50 4 0 14 -20 21
-45 10 -36 10 -55 0 -92 -20 -80 -30 -99 -71 -139 -21 -21 -39 -44 -39 -51 0
-7 -4 -13 -8 -13 -15 0 -72 -53 -72 -66 0 -8 -5 -14 -11 -14 -6 0 -41 -12 -77
-27 -63 -26 -74 -27 -207 -25 -108 2 -143 6 -151 17 -7 9 -28 15 -51 15 -66 0
-143 35 -143 66 0 6 -11 17 -25 24 -36 19 -31 34 24 69 26 17 56 40 66 51 10
11 23 20 29 20 16 1 66 75 66 99 0 30 30 60 67 67 19 4 33 12 33 20 0 8 7 14
15 14 9 0 30 15 48 33 17 18 48 39 67 47 19 8 37 17 40 20 3 4 26 15 53 25 26
10 47 21 47 26 0 8 33 15 83 18 15 0 40 -5 55 -13z"/>
</g>
</svg>
