<?xml version="1.0" standalone="no"?>
<!DOCTYPE svg PUBLIC "-//W3C//DTD SVG 20010904//EN"
 "http://www.w3.org/TR/2001/REC-SVG-20010904/DTD/svg10.dtd">
<svg version="1.0" xmlns="http://www.w3.org/2000/svg"
 width="183.000000pt" height="216.000000pt" viewBox="0 0 183.000000 216.000000"
 preserveAspectRatio="xMidYMid meet">
<metadata>
Created by potrace 1.16, written by Peter Selinger 2001-2019
</metadata>
<g transform="translate(0.000000,216.000000) scale(0.100000,-0.100000)"
fill="#000000" stroke="none">
<path d="M1284 2146 c-23 -7 -88 -36 -146 -65 -58 -28 -109 -51 -114 -51 -13
0 -54 -45 -54 -59 0 -6 -8 -11 -17 -11 -12 0 -27 -19 -42 -53 -14 -28 -38 -69
-55 -91 -33 -43 -54 -106 -69 -212 -11 -79 -4 -124 18 -124 8 0 15 -9 15 -20
0 -30 28 -80 45 -80 8 0 15 -7 15 -15 0 -8 7 -15 15 -15 8 0 19 -9 25 -20 6
-11 17 -20 25 -20 8 0 15 -5 15 -12 0 -19 219 -2 277 23 90 38 170 81 196 105
38 35 57 31 57 -9 0 -36 -34 -145 -50 -161 -6 -6 -10 -23 -10 -38 0 -27 -3
-36 -32 -90 -52 -101 -104 -235 -117 -302 -5 -27 -13 -51 -19 -55 -5 -3 -17
-40 -26 -81 -16 -71 -35 -127 -56 -160 -5 -8 -16 -30 -24 -47 -8 -18 -39 -63
-68 -100 -30 -38 -62 -81 -72 -98 -11 -16 -23 -34 -28 -40 -4 -5 -18 -23 -30
-39 -27 -36 -111 -90 -165 -106 -37 -11 -44 -11 -71 8 -16 12 -59 26 -97 32
-38 6 -80 17 -94 25 -14 7 -46 23 -71 35 -69 33 -89 45 -114 69 -12 11 -26 21
-32 21 -5 0 -20 9 -34 20 -14 11 -33 20 -42 20 -10 0 -18 5 -18 10 0 6 -19 23
-43 38 -69 44 -95 74 -99 112 -3 40 -32 54 -41 20 -3 -11 -12 -20 -21 -20 -10
0 -16 -9 -16 -25 0 -14 5 -25 10 -25 6 0 10 -6 10 -13 0 -8 9 -22 20 -32 11
-10 20 -22 20 -28 0 -17 42 -47 83 -59 24 -7 43 -21 50 -35 5 -13 19 -23 29
-23 20 0 48 -22 48 -37 1 -11 72 -43 97 -43 12 0 23 -7 27 -15 3 -8 14 -15 25
-15 11 0 25 -8 30 -19 7 -12 26 -20 62 -24 28 -4 56 -13 63 -20 6 -8 23 -17
39 -21 15 -4 27 -12 27 -19 0 -7 15 -18 33 -25 72 -26 215 17 283 85 18 18 38
33 44 33 5 0 10 10 10 23 0 12 11 31 25 41 14 10 25 25 25 32 0 7 13 28 30 46
16 18 30 38 30 45 0 7 6 13 13 13 18 0 47 32 47 51 0 8 8 19 18 25 10 6 23 34
31 63 7 28 18 51 25 51 7 0 18 19 25 43 7 23 17 50 22 59 5 10 9 31 9 48 0 17
4 38 9 48 5 9 21 40 35 68 14 29 26 68 26 88 0 39 19 84 44 105 8 7 17 29 21
51 4 21 13 46 20 57 8 10 15 30 15 46 0 15 5 36 10 47 6 11 15 29 20 40 6 11
10 26 10 34 0 7 7 19 15 26 9 7 15 29 15 51 0 22 5 39 10 39 7 0 8 18 4 50 -6
42 -4 50 10 50 9 0 16 8 16 18 0 10 9 24 20 32 11 8 20 25 20 38 0 13 8 36 18
50 10 15 27 44 37 65 11 21 28 43 37 48 10 5 20 27 24 54 3 25 10 45 15 45 5
0 9 9 9 19 0 10 7 21 15 25 8 3 15 13 15 22 0 9 7 22 16 29 21 15 11 95 -12
95 -9 0 -14 11 -14 30 0 28 -3 30 -34 30 -19 0 -37 4 -41 9 -3 5 -20 13 -38
16 -17 4 -45 19 -60 33 -27 25 -33 27 -160 29 -90 2 -145 -1 -173 -11z m291
-99 c131 -40 153 -64 121 -132 -9 -18 -16 -40 -16 -49 0 -9 -4 -16 -10 -16 -5
0 -10 -6 -10 -14 0 -8 -11 -28 -25 -44 -14 -17 -25 -40 -25 -52 0 -12 -9 -33
-20 -47 -11 -14 -20 -31 -20 -37 0 -15 -84 -96 -99 -96 -6 0 -11 -6 -11 -12 0
-7 -10 -21 -23 -31 -40 -32 -142 -97 -152 -97 -5 0 -23 -7 -40 -16 -38 -20
-200 -23 -268 -5 -37 10 -51 19 -58 39 -6 15 -14 29 -18 32 -5 3 -18 24 -30
48 -20 39 -21 47 -10 110 12 70 33 122 49 122 6 0 10 5 10 11 0 6 7 17 15 25
8 9 15 26 15 40 0 15 6 24 15 24 8 0 15 8 15 17 0 16 45 63 60 63 4 0 10 8 12
18 3 9 18 23 34 31 16 7 36 17 44 21 9 4 31 11 50 15 19 4 41 11 50 15 34 17
96 39 120 43 53 7 158 -5 225 -26z"/>
</g>
</svg>
