<?xml version="1.0" standalone="no"?>
<!DOCTYPE svg PUBLIC "-//W3C//DTD SVG 20010904//EN"
 "http://www.w3.org/TR/2001/REC-SVG-20010904/DTD/svg10.dtd">
<svg version="1.0" xmlns="http://www.w3.org/2000/svg"
 width="60.000000pt" height="62.000000pt" viewBox="0 0 60.000000 62.000000"
 preserveAspectRatio="xMidYMid meet">
<metadata>
Created by potrace 1.16, written by Peter Selinger 2001-2019
</metadata>
<g transform="translate(0.000000,62.000000) scale(0.100000,-0.100000)"
fill="#000000" stroke="none">
<path d="M459 547 c-80 -78 -105 -106 -194 -212 -165 -198 -185 -214 -185
-156 0 17 5 33 10 36 6 3 10 23 10 44 0 68 -53 83 -63 19 -3 -18 -12 -62 -21
-98 -24 -92 -19 -131 18 -143 27 -9 32 -7 55 24 49 65 165 180 188 185 49 13
143 -77 143 -135 0 -14 10 -44 21 -68 16 -34 26 -43 42 -41 17 2 24 17 38 73
49 203 88 507 68 531 -24 29 -56 15 -130 -59z m71 -94 c0 -21 -9 -92 -20 -158
-11 -66 -20 -123 -20 -127 0 -20 -31 -5 -45 22 -8 16 -35 46 -60 67 -25 20
-45 42 -45 49 0 17 160 184 176 184 10 0 14 -12 14 -37z"/>
</g>
</svg>
