<?xml version="1.0" standalone="no"?>
<!DOCTYPE svg PUBLIC "-//W3C//DTD SVG 20010904//EN"
 "http://www.w3.org/TR/2001/REC-SVG-20010904/DTD/svg10.dtd">
<svg version="1.0" xmlns="http://www.w3.org/2000/svg"
 width="56.000000pt" height="64.000000pt" viewBox="0 0 56.000000 64.000000"
 preserveAspectRatio="xMidYMid meet">
<metadata>
Created by potrace 1.16, written by Peter Selinger 2001-2019
</metadata>
<g transform="translate(0.000000,64.000000) scale(0.100000,-0.100000)"
fill="#000000" stroke="none">
<path d="M393 629 c-95 -18 -187 -79 -181 -120 3 -27 38 -40 38 -15 0 9 7 16
15 16 8 0 15 -6 15 -14 0 -15 -60 -202 -81 -251 -7 -16 -20 -52 -29 -80 l-16
-50 -74 0 c-63 0 -75 -3 -78 -18 -3 -13 3 -17 24 -17 15 0 43 -5 61 -12 27
-10 33 -17 33 -40 0 -33 24 -38 40 -8 9 16 17 18 58 13 64 -7 220 14 256 35
33 19 64 73 72 124 9 51 -18 104 -60 125 -42 20 -44 29 -13 63 57 62 87 113
87 151 0 95 -47 122 -167 98z m107 -76 c-1 -45 -35 -109 -90 -167 -27 -29 -50
-60 -50 -69 0 -8 17 -24 37 -34 43 -20 83 -74 83 -110 0 -36 -28 -71 -67 -84
-27 -8 -53 -8 -114 1 -78 12 -79 13 -79 42 0 16 5 39 11 50 6 12 31 80 56 151
24 72 50 136 58 141 7 6 15 22 19 36 9 39 21 51 57 60 66 16 79 13 79 -17z"/>
</g>
</svg>
