<?xml version="1.0" standalone="no"?>
<!DOCTYPE svg PUBLIC "-//W3C//DTD SVG 20010904//EN"
 "http://www.w3.org/TR/2001/REC-SVG-20010904/DTD/svg10.dtd">
<svg version="1.0" xmlns="http://www.w3.org/2000/svg"
 width="46.000000pt" height="60.000000pt" viewBox="0 0 46.000000 60.000000"
 preserveAspectRatio="xMidYMid meet">
<metadata>
Created by potrace 1.16, written by Peter Selinger 2001-2019
</metadata>
<g transform="translate(0.000000,60.000000) scale(0.100000,-0.100000)"
fill="#000000" stroke="none">
<path d="M206 550 c-98 -81 -186 -243 -201 -370 -20 -155 56 -208 234 -164
128 32 221 83 221 122 0 28 -38 29 -95 2 -22 -11 -46 -19 -54 -20 -8 0 -24 -8
-35 -18 -30 -27 -100 -52 -146 -52 -34 0 -42 4 -55 30 -35 67 -11 189 61 305
16 26 35 57 41 70 21 37 91 95 116 95 49 0 67 -12 79 -51 16 -54 38 -51 38 5
0 39 -4 48 -33 70 -55 42 -100 36 -171 -24z"/>
</g>
</svg>
