<?xml version="1.0" standalone="no"?>
<!DOCTYPE svg PUBLIC "-//W3C//DTD SVG 20010904//EN"
 "http://www.w3.org/TR/2001/REC-SVG-20010904/DTD/svg10.dtd">
<svg version="1.0" xmlns="http://www.w3.org/2000/svg"
 width="56.000000pt" height="60.000000pt" viewBox="0 0 56.000000 60.000000"
 preserveAspectRatio="xMidYMid meet">
<metadata>
Created by potrace 1.16, written by Peter Selinger 2001-2019
</metadata>
<g transform="translate(0.000000,60.000000) scale(0.100000,-0.100000)"
fill="#000000" stroke="none">
<path d="M229 587 c-57 -16 -135 -62 -149 -87 -5 -10 -10 -31 -10 -45 0 -24 3
-26 37 -23 30 2 38 8 43 28 6 26 92 81 106 68 9 -9 -24 -108 -84 -255 -28 -68
-53 -137 -57 -154 -7 -29 -9 -31 -39 -24 -17 4 -42 9 -54 12 -20 5 -23 2 -20
-17 2 -16 12 -26 32 -31 15 -4 36 -14 45 -22 42 -38 147 -46 260 -21 84 19 98
33 160 164 48 103 65 175 58 249 -7 75 -22 105 -70 138 -35 25 -50 28 -126 30
-47 2 -107 -3 -132 -10z m240 -71 c21 -16 41 -70 41 -108 0 -42 -33 -161 -58
-209 -27 -54 -92 -119 -137 -140 -50 -23 -155 -26 -155 -5 0 8 25 66 55 129
30 63 55 121 55 129 0 8 4 18 8 24 13 14 62 159 62 183 0 20 4 21 58 15 31 -4
63 -12 71 -18z"/>
</g>
</svg>
