<?xml version="1.0" standalone="no"?>
<!DOCTYPE svg PUBLIC "-//W3C//DTD SVG 20010904//EN"
 "http://www.w3.org/TR/2001/REC-SVG-20010904/DTD/svg10.dtd">
<svg version="1.0" xmlns="http://www.w3.org/2000/svg"
 width="64.000000pt" height="65.000000pt" viewBox="0 0 64.000000 65.000000"
 preserveAspectRatio="xMidYMid meet">
<metadata>
Created by potrace 1.16, written by Peter Selinger 2001-2019
</metadata>
<g transform="translate(0.000000,65.000000) scale(0.100000,-0.100000)"
fill="#000000" stroke="none">
<path d="M255 639 c-164 -7 -205 -18 -205 -55 0 -19 7 -24 46 -30 l46 -7 -6
-50 c-8 -60 -28 -135 -51 -197 -9 -25 -20 -63 -25 -85 -5 -22 -21 -73 -35
-114 -14 -40 -24 -80 -20 -88 4 -13 21 -14 98 -8 88 6 191 19 250 31 18 4 27
12 27 25 0 27 -25 34 -63 16 -17 -8 -79 -18 -136 -21 l-104 -7 7 28 c3 15 11
54 18 86 11 56 13 57 52 67 23 6 61 17 86 24 25 8 72 19 105 26 116 23 135 29
135 50 0 24 8 24 -98 1 -48 -11 -120 -23 -159 -27 -65 -6 -73 -5 -73 10 0 23
50 216 61 238 8 16 29 17 210 15 110 -1 205 1 212 5 23 15 -8 42 -64 54 -81
17 -149 20 -314 13z"/>
</g>
</svg>
