<?xml version="1.0" standalone="no"?>
<!DOCTYPE svg PUBLIC "-//W3C//DTD SVG 20010904//EN"
 "http://www.w3.org/TR/2001/REC-SVG-20010904/DTD/svg10.dtd">
<svg version="1.0" xmlns="http://www.w3.org/2000/svg"
 width="63.000000pt" height="65.000000pt" viewBox="0 0 63.000000 65.000000"
 preserveAspectRatio="xMidYMid meet">
<metadata>
Created by potrace 1.16, written by Peter Selinger 2001-2019
</metadata>
<g transform="translate(0.000000,65.000000) scale(0.100000,-0.100000)"
fill="#000000" stroke="none">
<path d="M325 640 c-22 -5 -61 -9 -87 -9 -95 -2 -131 -38 -58 -60 22 -6 40
-16 40 -22 0 -6 -23 -58 -50 -116 -34 -70 -57 -107 -70 -110 -14 -4 -20 -14
-20 -33 0 -15 -16 -62 -35 -104 -19 -42 -36 -95 -37 -118 -3 -36 1 -44 24 -57
24 -14 28 -14 45 1 10 9 47 75 83 146 l65 130 44 7 c23 3 91 5 150 4 125 -3
153 4 149 34 -3 22 -5 22 -162 18 l-158 -3 7 33 c16 75 48 161 68 180 16 15
35 19 84 19 35 0 63 -4 63 -10 0 -13 13 -13 47 2 15 7 43 12 62 13 38 0 63 27
44 46 -14 14 -244 21 -298 9z"/>
</g>
</svg>
