<?xml version="1.0" standalone="no"?>
<!DOCTYPE svg PUBLIC "-//W3C//DTD SVG 20010904//EN"
 "http://www.w3.org/TR/2001/REC-SVG-20010904/DTD/svg10.dtd">
<svg version="1.0" xmlns="http://www.w3.org/2000/svg"
 width="54.000000pt" height="69.000000pt" viewBox="0 0 54.000000 69.000000"
 preserveAspectRatio="xMidYMid meet">
<metadata>
Created by potrace 1.16, written by Peter Selinger 2001-2019
</metadata>
<g transform="translate(0.000000,69.000000) scale(0.100000,-0.100000)"
fill="#000000" stroke="none">
<path d="M245 678 c-27 -15 -95 -80 -95 -91 0 -5 -28 -55 -61 -111 -76 -125
-89 -161 -89 -247 0 -62 2 -70 25 -85 38 -25 108 -29 159 -10 71 27 112 75
128 148 l14 63 55 7 c79 10 92 4 84 -40 -9 -56 -43 -161 -72 -224 -28 -62 -26
-88 9 -88 21 0 28 13 66 133 54 167 72 229 72 244 0 6 -31 19 -70 27 -111 26
-261 -4 -268 -53 -2 -12 6 -26 22 -37 54 -34 25 -95 -62 -130 -56 -22 -92 -9
-92 35 0 39 45 171 86 251 33 66 99 150 116 150 6 0 19 -11 30 -25 11 -14 28
-25 39 -25 16 0 19 7 19 48 0 26 -5 53 -12 60 -15 15 -76 15 -103 0z"/>
</g>
</svg>
