<?xml version="1.0" standalone="no"?>
<!DOCTYPE svg PUBLIC "-//W3C//DTD SVG 20010904//EN"
 "http://www.w3.org/TR/2001/REC-SVG-20010904/DTD/svg10.dtd">
<svg version="1.0" xmlns="http://www.w3.org/2000/svg"
 width="48.000000pt" height="64.000000pt" viewBox="0 0 48.000000 64.000000"
 preserveAspectRatio="xMidYMid meet">
<metadata>
Created by potrace 1.16, written by Peter Selinger 2001-2019
</metadata>
<g transform="translate(0.000000,64.000000) scale(0.100000,-0.100000)"
fill="#000000" stroke="none">
<path d="M170 618 c-5 -13 -14 -47 -20 -77 -5 -29 -21 -81 -35 -115 -14 -35
-25 -69 -25 -77 0 -8 -4 -19 -10 -25 -11 -11 -80 -208 -80 -229 0 -9 11 -21
25 -27 37 -17 48 -1 94 137 l40 120 58 6 c32 4 70 10 86 14 30 8 34 -2 15 -38
-23 -44 -58 -193 -58 -249 0 -49 3 -58 18 -58 29 0 42 21 42 69 0 87 40 221
101 341 62 123 72 163 38 158 -20 -3 -45 -36 -85 -116 -21 -42 -34 -48 -123
-56 l-74 -7 7 52 c4 29 11 60 16 70 5 9 13 42 16 73 6 53 5 56 -15 56 -13 0
-25 -9 -31 -22z"/>
</g>
</svg>
