<?xml version="1.0" standalone="no"?>
<!DOCTYPE svg PUBLIC "-//W3C//DTD SVG 20010904//EN"
 "http://www.w3.org/TR/2001/REC-SVG-20010904/DTD/svg10.dtd">
<svg version="1.0" xmlns="http://www.w3.org/2000/svg"
 width="66.000000pt" height="47.000000pt" viewBox="0 0 66.000000 47.000000"
 preserveAspectRatio="xMidYMid meet">
<metadata>
Created by potrace 1.16, written by Peter Selinger 2001-2019
</metadata>
<g transform="translate(0.000000,47.000000) scale(0.100000,-0.100000)"
fill="#000000" stroke="none">
<path d="M340 458 c-36 -5 -94 -7 -129 -4 -99 6 -142 -23 -85 -60 22 -15 31
-16 72 -4 72 19 182 25 182 9 0 -22 -79 -224 -111 -283 l-31 -56 -119 6 c-115
7 -119 6 -119 -13 0 -24 6 -26 132 -44 66 -9 97 -9 125 -1 21 6 74 14 118 17
78 6 257 23 263 24 1 1 2 7 2 15 0 20 -42 25 -149 15 -140 -12 -171 -11 -171
5 0 7 15 51 33 97 18 46 44 112 57 145 22 57 27 63 64 74 22 6 71 10 110 8
l71 -3 0 30 0 30 -125 1 c-69 1 -154 -2 -190 -8z"/>
</g>
</svg>
