<?xml version="1.0" standalone="no"?>
<!DOCTYPE svg PUBLIC "-//W3C//DTD SVG 20010904//EN"
 "http://www.w3.org/TR/2001/REC-SVG-20010904/DTD/svg10.dtd">
<svg version="1.0" xmlns="http://www.w3.org/2000/svg"
 width="63.000000pt" height="60.000000pt" viewBox="0 0 63.000000 60.000000"
 preserveAspectRatio="xMidYMid meet">
<metadata>
Created by potrace 1.16, written by Peter Selinger 2001-2019
</metadata>
<g transform="translate(0.000000,60.000000) scale(0.100000,-0.100000)"
fill="#000000" stroke="none">
<path d="M188 583 c-8 -10 -18 -38 -20 -64 -6 -51 -49 -158 -85 -206 -13 -17
-23 -41 -23 -52 0 -25 -38 -101 -51 -101 -12 0 -11 -51 0 -69 11 -17 41 -7 41
13 0 8 16 47 35 85 l36 71 45 0 c25 0 57 -6 72 -14 15 -8 76 -66 135 -129
l108 -116 74 2 c43 1 75 6 75 12 0 6 -32 21 -71 35 -52 17 -80 34 -107 63 -21
22 -70 71 -109 110 -40 38 -73 75 -73 82 0 6 58 42 130 80 146 78 162 99 84
111 -44 6 -48 5 -71 -25 -33 -43 -95 -81 -158 -97 -27 -8 -53 -14 -57 -14 -11
0 -10 27 2 48 5 9 16 35 26 57 9 22 20 49 26 61 5 12 8 32 6 45 -4 31 -47 38
-70 12z"/>
</g>
</svg>
