<?xml version="1.0" standalone="no"?>
<!DOCTYPE svg PUBLIC "-//W3C//DTD SVG 20010904//EN"
 "http://www.w3.org/TR/2001/REC-SVG-20010904/DTD/svg10.dtd">
<svg version="1.0" xmlns="http://www.w3.org/2000/svg"
 width="69.000000pt" height="52.000000pt" viewBox="0 0 69.000000 52.000000"
 preserveAspectRatio="xMidYMid meet">
<metadata>
Created by potrace 1.16, written by Peter Selinger 2001-2019
</metadata>
<g transform="translate(0.000000,52.000000) scale(0.100000,-0.100000)"
fill="#000000" stroke="none">
<path d="M611 466 c-18 -30 -54 -105 -79 -168 -28 -65 -54 -114 -63 -116 -10
-2 -23 15 -37 48 -12 27 -22 54 -22 59 0 23 -45 106 -73 135 -23 23 -45 35
-77 40 -41 6 -47 5 -67 -19 -13 -14 -23 -32 -23 -40 0 -7 -23 -62 -51 -121
-127 -272 -132 -284 -104 -284 9 0 25 4 35 10 18 10 130 230 130 256 0 8 4 14
8 14 4 0 16 22 26 50 10 28 22 50 28 50 12 0 98 -94 116 -128 8 -13 20 -52 28
-86 26 -110 36 -136 53 -136 23 0 61 28 61 46 0 8 4 22 9 32 14 28 61 146 61
155 0 15 99 215 109 222 20 12 12 35 -12 35 -17 0 -31 -14 -56 -54z"/>
</g>
</svg>
