<?xml version="1.0" standalone="no"?>
<!DOCTYPE svg PUBLIC "-//W3C//DTD SVG 20010904//EN"
 "http://www.w3.org/TR/2001/REC-SVG-20010904/DTD/svg10.dtd">
<svg version="1.0" xmlns="http://www.w3.org/2000/svg"
 width="51.000000pt" height="56.000000pt" viewBox="0 0 51.000000 56.000000"
 preserveAspectRatio="xMidYMid meet">
<metadata>
Created by potrace 1.16, written by Peter Selinger 2001-2019
</metadata>
<g transform="translate(0.000000,56.000000) scale(0.100000,-0.100000)"
fill="#000000" stroke="none">
<path d="M252 529 c-57 -28 -152 -118 -186 -177 -49 -85 -59 -110 -60 -160 -1
-46 3 -57 24 -74 21 -17 34 -19 80 -14 30 3 76 11 102 18 26 6 51 9 55 5 8 -8
-12 -48 -39 -76 -25 -28 -23 -51 5 -51 12 0 27 4 33 8 20 13 84 120 84 141 0
18 67 112 91 126 6 4 24 28 40 53 23 36 29 58 29 99 0 61 -16 83 -83 114 -60
27 -104 24 -175 -12z m52 -101 c-4 -35 -8 -94 -9 -133 l0 -69 -55 -27 c-61
-30 -127 -44 -159 -34 -57 18 2 131 141 268 79 77 93 76 82 -5z m142 -12 c8
-32 -33 -106 -58 -106 -15 0 -18 9 -18 59 0 61 5 69 47 70 16 1 24 -6 29 -23z"/>
</g>
</svg>
