<?xml version="1.0" standalone="no"?>
<!DOCTYPE svg PUBLIC "-//W3C//DTD SVG 20010904//EN"
 "http://www.w3.org/TR/2001/REC-SVG-20010904/DTD/svg10.dtd">
<svg version="1.0" xmlns="http://www.w3.org/2000/svg"
 width="59.000000pt" height="63.000000pt" viewBox="0 0 59.000000 63.000000"
 preserveAspectRatio="xMidYMid meet">
<metadata>
Created by potrace 1.16, written by Peter Selinger 2001-2019
</metadata>
<g transform="translate(0.000000,63.000000) scale(0.100000,-0.100000)"
fill="#000000" stroke="none">
<path d="M276 603 c-57 -31 -86 -73 -86 -125 0 -35 -25 -93 -55 -128 -7 -8
-16 -26 -20 -40 -4 -14 -11 -27 -14 -30 -7 -5 -36 -51 -69 -111 -11 -19 -23
-49 -26 -66 -6 -27 -4 -31 19 -37 14 -4 30 -4 35 -1 4 3 25 39 45 80 34 67 40
75 66 75 23 0 34 -9 55 -42 15 -24 30 -44 34 -46 5 -2 36 -25 69 -52 66 -53
119 -73 193 -74 54 -1 78 15 62 42 -6 9 -22 18 -35 20 -13 1 -58 14 -99 29
-74 25 -110 47 -110 65 0 5 -11 24 -25 42 -35 47 -32 69 20 118 25 24 61 68
80 98 29 46 35 63 35 110 0 43 -5 61 -20 78 -29 31 -91 29 -154 -5z m110 -37
c3 -8 -2 -41 -11 -73 -19 -65 -87 -143 -124 -143 -11 0 -21 3 -21 7 0 19 35
100 52 119 10 11 18 34 18 51 0 21 6 33 23 41 32 15 57 14 63 -2z"/>
</g>
</svg>
