<?xml version="1.0" standalone="no"?>
<!DOCTYPE svg PUBLIC "-//W3C//DTD SVG 20010904//EN"
 "http://www.w3.org/TR/2001/REC-SVG-20010904/DTD/svg10.dtd">
<svg version="1.0" xmlns="http://www.w3.org/2000/svg"
 width="56.000000pt" height="49.000000pt" viewBox="0 0 56.000000 49.000000"
 preserveAspectRatio="xMidYMid meet">
<metadata>
Created by potrace 1.16, written by Peter Selinger 2001-2019
</metadata>
<g transform="translate(0.000000,49.000000) scale(0.100000,-0.100000)"
fill="#000000" stroke="none">
<path d="M384 475 c-17 -8 -44 -29 -59 -47 -25 -30 -27 -37 -22 -94 4 -38 19
-89 41 -139 20 -42 36 -88 36 -101 0 -48 -71 -26 -217 68 -74 48 -95 76 -87
117 6 26 3 31 -13 31 -38 0 -80 -58 -53 -75 6 -3 10 -15 10 -26 0 -10 7 -19
15 -19 8 0 15 -6 15 -13 0 -6 12 -18 28 -24 15 -7 50 -28 79 -47 29 -19 63
-38 75 -41 13 -4 30 -13 38 -19 27 -22 126 -49 152 -43 39 10 47 78 17 142 -5
11 -17 45 -28 75 -10 30 -27 76 -37 102 l-18 47 23 25 c24 26 77 41 106 30 14
-6 16 -15 11 -51 -6 -49 11 -67 38 -40 35 35 26 126 -14 147 -26 14 -99 11
-136 -5z"/>
</g>
</svg>
